{
  "accessors": [
    {
      "bufferView": 3,
      "componentType": 5126,
      "count": 4291,
      "max": [
        9.009969711303711,
        8.850749015808105,
        9.009960174560547
      ],
      "min": [
        -9.009963989257813,
        0.012603411450982094,
        -9.009969711303711
      ],
      "type": "VEC3"
    },
    {
      "bufferView": 3,
      "byteOffset": 51492,
      "componentType": 5126,
      "count": 4291,
      "max": [
        0.9797804951667786,
        1.0,
        0.9797802567481995
      ],
      "min": [
        -0.9797803163528442,
        -1.0,
        -0.979780375957489
      ],
      "type": "VEC3"
    },
    {
      "bufferView": 2,
      "componentType": 5126,
      "count": 4291,
      "max": [
        0.9678859114646912,
        0.8984226584434509
      ],
      "min": [
        0.03332138434052467,
        0.027007319033145905
      ],
      "type": "VEC2"
    },
    {
      "bufferView": 1,
      "componentType": 5125,
      "count": 22800,
      "type": "SCALAR"
    },
    {
      "bufferView": 3,
      "byteOffset": 102984,
      "componentType": 5126,
      "count": 3354,
      "max": [
        7.23422384262085,
        7.404721260070801,
        6.675078392028809
      ],
      "min": [
        -6.657819747924805,
        0.5321713089942932,
        -7.021512985229492
      ],
      "type": "VEC3"
    },
    {
      "bufferView": 3,
      "byteOffset": 143232,
      "componentType": 5126,
      "count": 3354,
      "max": [
        1.0,
        1.0,
        1.0
      ],
      "min": [
        -1.0,
        -1.0,
        -1.0
      ],
      "type": "VEC3"
    },
    {
      "bufferView": 2,
      "byteOffset": 34328,
      "componentType": 5126,
      "count": 3354,
      "max": [
        0.7717824578285217,
        0.9790914058685303
      ],
      "min": [
        0.7010277509689331,
        0.8847517967224121
      ],
      "type": "VEC2"
    },
    {
      "bufferView": 1,
      "byteOffset": 91200,
      "componentType": 5125,
      "count": 12384,
      "type": "SCALAR"
    },
    {
      "bufferView": 3,
      "byteOffset": 183480,
      "componentType": 5126,
      "count": 12264,
      "max": [
        6.0775346755981445,
        7.060885429382324,
        6.070178031921387
      ],
      "min": [
        -5.673126220703125,
        0.8400405645370483,
        -5.703099727630615
      ],
      "type": "VEC3"
    },
    {
      "bufferView": 3,
      "byteOffset": 330648,
      "componentType": 5126,
      "count": 12264,
      "max": [
        0.9999819397926331,
        0.9977386593818665,
        0.9998995661735535
      ],
      "min": [
        -0.9999262094497681,
        -0.9999603033065796,
        -0.999903678894043
      ],
      "type": "VEC3"
    },
    {
      "bufferView": 2,
      "byteOffset": 61160,
      "componentType": 5126,
      "count": 12264,
      "max": [
        0.9783682823181152,
        0.9938653707504272
      ],
      "min": [
        0.0148181626573205,
        0.25375616550445557
      ],
      "type": "VEC2"
    },
    {
      "bufferView": 1,
      "byteOffset": 140736,
      "componentType": 5125,
      "count": 63360,
      "type": "SCALAR"
    },
    {
      "bufferView": 5,
      "componentType": 5126,
      "count": 7,
      "max": [
        1.0000001192092896,
        0.0,
        4.622912653490572e-24,
        0.0,
        1.0,
        1.0,
        7.549789415861596e-08,
        0.0,
        0.0,
        7.346839692639297e-40,
        1.0,
        0.0,
        0.011326783336699009,
        0.0,
        2.9827784122846146e-14,
        1.0
      ],
      "min": [
        6.123234262925839e-17,
        -1.0000001192092896,
        0.0,
        0.0,
        0.0,
        6.123234262925839e-17,
        0.0,
        0.0,
        -7.549789415861596e-08,
        -7.549789415861596e-08,
        1.0,
        0.0,
        -6.266106128692627,
        -8.124460220336914,
        0.0,
        1.0
      ],
      "type": "MAT4"
    },
    {
      "bufferView": 0,
      "componentType": 5123,
      "count": 4291,
      "type": "VEC4"
    },
    {
      "bufferView": 4,
      "componentType": 5126,
      "count": 4291,
      "max": [
        1.0,
        0.3557247221469879,
        0.27340608835220337,
        0.24973030388355255
      ],
      "min": [
        0.2500899136066437,
        0.0,
        0.0,
        0.0
      ],
      "type": "VEC4"
    },
    {
      "bufferView": 0,
      "byteOffset": 34328,
      "componentType": 5123,
      "count": 3354,
      "type": "VEC4"
    },
    {
      "bufferView": 4,
      "byteOffset": 68656,
      "componentType": 5126,
      "count": 3354,
      "max": [
        0.9603139162063599,
        0.3491041660308838,
        0.2606827914714813,
        0.24497656524181366
      ],
      "min": [
        0.25478997826576233,
        0.03968608379364014,
        0.0,
        0.0
      ],
      "type": "VEC4"
    },
    {
      "bufferView": 0,
      "byteOffset": 61160,
      "componentType": 5123,
      "count": 12264,
      "type": "VEC4"
    },
    {
      "bufferView": 4,
      "byteOffset": 122320,
      "componentType": 5126,
      "count": 12264,
      "max": [
        0.6289485096931458,
        0.4066009819507599,
        0.2592513859272003,
        0.24316129088401794
      ],
      "min": [
        0.2570266127586365,
        0.23042795062065125,
        0.0733049064874649,
        0.056687381118535995
      ],
      "type": "VEC4"
    },
    {
      "bufferView": 6,
      "componentType": 5126,
      "count": 76,
      "max": [
        4.166666507720947
      ],
      "min": [
        0.0
      ],
      "type": "SCALAR"
    },
    {
      "bufferView": 7,
      "componentType": 5126,
      "count": 76,
      "max": [
        1.858354091644287,
        0.6013725399971008,
        2.7755575615628914e-17
      ],
      "min": [
        1.858354091644287,
        -0.37027084827423096,
        -2.7755575615628914e-17
      ],
      "type": "VEC3"
    },
    {
      "bufferView": 6,
      "byteOffset": 304,
      "componentType": 5126,
      "count": 76,
      "max": [
        4.166666507720947
      ],
      "min": [
        0.0
      ],
      "type": "SCALAR"
    },
    {
      "bufferView": 8,
      "componentType": 5126,
      "count": 76,
      "max": [
        1.0426395727091038e-17,
        1.962615539765984e-17,
        -0.7071068286895752,
        0.7071067094802856
      ],
      "min": [
        -9.813078526010532e-18,
        -1.226634650315194e-17,
        -0.7071068286895752,
        0.7071067094802856
      ],
      "type": "VEC4"
    },
    {
      "bufferView": 6,
      "byteOffset": 608,
      "componentType": 5126,
      "count": 76,
      "max": [
        4.166666507720947
      ],
      "min": [
        0.0
      ],
      "type": "SCALAR"
    },
    {
      "bufferView": 7,
      "byteOffset": 912,
      "componentType": 5126,
      "count": 76,
      "max": [
        1.551821231842041,
        0.6013724207878113,
        2.7755575615628914e-17
      ],
      "min": [
        1.551821231842041,
        -0.37027084827423096,
        -2.7755575615628914e-17
      ],
      "type": "VEC3"
    },
    {
      "bufferView": 6,
      "byteOffset": 912,
      "componentType": 5126,
      "count": 76,
      "max": [
        4.166666507720947
      ],
      "min": [
        0.0
      ],
      "type": "SCALAR"
    },
    {
      "bufferView": 8,
      "byteOffset": 1216,
      "componentType": 5126,
      "count": 76,
      "max": [
        2.7755575615628914e-17,
        6.938893903907228e-18,
        -8.640549213623228e-16,
        1.0
      ],
      "min": [
        -2.0816681711721685e-17,
        -6.938893903907228e-18,
        -9.033708026420784e-16,
        1.0
      ],
      "type": "VEC4"
    },
    {
      "bufferView": 6,
      "byteOffset": 1216,
      "componentType": 5126,
      "count": 76,
      "max": [
        4.166666507720947
      ],
      "min": [
        0.0
      ],
      "type": "SCALAR"
    },
    {
      "bufferView": 7,
      "byteOffset": 1824,
      "componentType": 5126,
      "count": 76,
      "max": [
        2.318152666091919,
        0.6013725996017456,
        5.293955920339377e-23
      ],
      "min": [
        2.318152666091919,
        -0.3702707886695862,
        -1.0587911840678754e-22
      ],
      "type": "VEC3"
    },
    {
      "bufferView": 6,
      "byteOffset": 1520,
      "componentType": 5126,
      "count": 76,
      "max": [
        4.166666507720947
      ],
      "min": [
        0.0
      ],
      "type": "SCALAR"
    },
    {
      "bufferView": 8,
      "byteOffset": 2432,
      "componentType": 5126,
      "count": 76,
      "max": [
        0.04259425774216652,
        0.017334673553705215,
        0.06379923224449158,
        1.0
      ],
      "min": [
        -0.08202622830867767,
        -0.023550046607851982,
        -0.01799463853240013,
        0.9961893558502197
      ],
      "type": "VEC4"
    }
  ],
  "animations": [
    {
      "channels": [
        {
          "sampler": 0,
          "target": {
            "node": 11,
            "path": "translation"
          }
        },
        {
          "sampler": 1,
          "target": {
            "node": 11,
            "path": "rotation"
          }
        },
        {
          "sampler": 2,
          "target": {
            "node": 10,
            "path": "translation"
          }
        },
        {
          "sampler": 3,
          "target": {
            "node": 10,
            "path": "rotation"
          }
        },
        {
          "sampler": 4,
          "target": {
            "node": 9,
            "path": "translation"
          }
        },
        {
          "sampler": 5,
          "target": {
            "node": 9,
            "path": "rotation"
          }
        }
      ],
      "name": "Armature|Armature|Take 001|BaseLayer",
      "samplers": [
        {
          "input": 19,
          "interpolation": "LINEAR",
          "output": 20
        },
        {
          "input": 21,
          "interpolation": "LINEAR",
          "output": 22
        },
        {
          "input": 23,
          "interpolation": "LINEAR",
          "output": 24
        },
        {
          "input": 25,
          "interpolation": "LINEAR",
          "output": 26
        },
        {
          "input": 27,
          "interpolation": "LINEAR",
          "output": 28
        },
        {
          "input": 29,
          "interpolation": "LINEAR",
          "output": 30
        }
      ]
    }
  ],
  "asset": {
    "extras": {
      "author": "Tomato Owl (https://sketchfab.com/tomato_owl)",
      "license": "CC-BY-4.0 (http://creativecommons.org/licenses/by/4.0/)",
      "source": "https://sketchfab.com/3d-models/jelly-a59257e5fc344d0d9aca8187c7ade6fc",
      "title": "Jelly"
    },
    "generator": "Sketchfab-15.50.0",
    "version": "2.0"
  },
  "bufferViews": [
    {
      "buffer": 0,
      "byteLength": 159272,
      "byteStride": 8,
      "name": "shortBufferViews",
      "target": 34962
    },
    {
      "buffer": 0,
      "byteLength": 394176,
      "byteOffset": 159272,
      "name": "floatBufferViews",
      "target": 34963
    },
    {
      "buffer": 0,
      "byteLength": 159272,
      "byteOffset": 553448,
      "byteStride": 8,
      "name": "floatBufferViews",
      "target": 34962
    },
    {
      "buffer": 0,
      "byteLength": 477816,
      "byteOffset": 712720,
      "byteStride": 12,
      "name": "floatBufferViews",
      "target": 34962
    },
    {
      "buffer": 0,
      "byteLength": 318544,
      "byteOffset": 1190536,
      "byteStride": 16,
      "name": "floatBufferViews",
      "target": 34962
    },
    {
      "buffer": 0,
      "byteLength": 448,
      "byteOffset": 1509080,
      "name": "floatBufferViews"
    },
    {
      "buffer": 0,
      "byteLength": 1824,
      "byteOffset": 1509528,
      "name": "floatBufferViews"
    },
    {
      "buffer": 0,
      "byteLength": 2736,
      "byteOffset": 1511352,
      "byteStride": 12,
      "name": "floatBufferViews"
    },
    {
      "buffer": 0,
      "byteLength": 3648,
      "byteOffset": 1514088,
      "byteStride": 16,
      "name": "floatBufferViews"
    }
  ],
  "buffers": [
    {
      "byteLength": 1517736,
      "uri": "scene.bin"
    }
  ],
  "extensionsUsed": [
    "KHR_materials_transmission",
    "KHR_materials_emissive_strength",
    "KHR_materials_clearcoat",
    "KHR_materials_specular"
  ],
  "images": [
    {
      "uri": "textures/blinn1_baseColor.png"
    },
    {
      "uri": "textures/stars1_baseColor.png"
    },
    {
      "uri": "textures/stars1_specularf0.png"
    }
  ],
  "materials": [
    {
      "alphaMode": "BLEND",
      "doubleSided": true,
      "emissiveFactor": [
        0.6127373419787261,
        0.6127373419787261,
        0.6127373419787261
      ],
      "emissiveTexture": {
        "index": 0
      },
      "extensions": {
        "KHR_materials_transmission": {
          "transmissionFactor": 0.9144193176610013
        }
      },
      "name": "blinn1",
      "pbrMetallicRoughness": {
        "baseColorFactor": [
          1.0,
          1.0,
          1.0,
          0.25
        ],
        "baseColorTexture": {
          "index": 0
        },
        "metallicFactor": 0.0,
        "roughnessFactor": 0.09773415640956182
      }
    },
    {
      "doubleSided": true,
      "emissiveFactor": [
        1.0,
        1.0,
        1.0
      ],
      "extensions": {
        "KHR_materials_emissive_strength": {
          "emissiveStrength": 10.0
        }
      },
      "name": "sparkle1",
      "pbrMetallicRoughness": {
        "metallicFactor": 0.0,
        "roughnessFactor": 0.1973643474977802
      }
    },
    {
      "alphaMode": "BLEND",
      "doubleSided": true,
      "emissiveFactor": [
        1.0,
        1.0,
        1.0
      ],
      "emissiveTexture": {
        "index": 0
      },
      "extensions": {
        "KHR_materials_clearcoat": {
          "clearcoatFactor": 0.5109522748087062,
          "clearcoatRoughnessFactor": 0.38334079706779395
        },
        "KHR_materials_emissive_strength": {
          "emissiveStrength": 3.8334079706779396
        },
        "KHR_materials_specular": {
          "specularColorFactor": [
            1.0,
            1.0,
            1.0
          ],
          "specularFactor": 1.0,
          "specularTexture": {
            "index": 2
          }
        }
      },
      "name": "stars1",
      "pbrMetallicRoughness": {
        "baseColorFactor": [
          1.0,
          1.0,
          1.0,
          0.5474126970203954
        ],
        "baseColorTexture": {
          "index": 1
        },
        "metallicFactor": 0.0,
        "roughnessFactor": 0.160903925286091
      }
    }
  ],
  "meshes": [
    {
      "name": "Jelly_blinn1_0",
      "primitives": [
        {
          "attributes": {
            "JOINTS_0": 13,
            "NORMAL": 1,
            "POSITION": 0,
            "TEXCOORD_0": 2,
            "WEIGHTS_0": 14
          },
          "indices": 3,
          "material": 0,
          "mode": 4
        }
      ]
    },
    {
      "name": "sparkle_sparkle1_0",
      "primitives": [
        {
          "attributes": {
            "JOINTS_0": 15,
            "NORMAL": 5,
            "POSITION": 4,
            "TEXCOORD_0": 6,
            "WEIGHTS_0": 16
          },
          "indices": 7,
          "material": 1,
          "mode": 4
        }
      ]
    },
    {
      "name": "stars_stars1_0",
      "primitives": [
        {
          "attributes": {
            "JOINTS_0": 17,
            "NORMAL": 9,
            "POSITION": 8,
            "TEXCOORD_0": 10,
            "WEIGHTS_0": 18
          },
          "indices": 11,
          "material": 2,
          "mode": 4
        }
      ]
    }
  ],
  "nodes": [
    {
      "children": [
        1
      ],
      "matrix": [
        1.0,
        0.0,
        0.0,
        0.0,
        0.0,
        2.220446049250313e-16,
        -1.0,
        0.0,
        0.0,
        1.0,
        2.220446049250313e-16,
        0.0,
        0.0,
        0.0,
        0.0,
        1.0
      ],
      "name": "Sketchfab_model"
    },
    {
      "children": [
        2
      ],
      "matrix": [
        0.009999999776482582,
        0.0,
        0.0,
        0.0,
        0.0,
        0.0,
        0.009999999776482582,
        0.0,
        0.0,
        -0.009999999776482582,
        0.0,
        0.0,
        0.0,
        0.0,
        0.0,
        1.0
      ],
      "name": "27e3225649c445cdb3d6812a685ff94b.fbx"
    },
    {
      "children": [
        3
      ],
      "name": "Object_2"
    },
    {
      "children": [
        4,
        19,
        20,
        21
      ],
      "name": "RootNode"
    },
    {
      "children": [
        5
      ],
      "name": "Armature",
      "rotation": [
        -3.774894707930798e-08,
        -0.0,
        0.0,
        1.0
      ]
    },
    {
      "children": [
        6,
        14,
        16,
        18,
        13,
        15,
        17
      ],
      "name": "Object_5"
    },
    {
      "children": [
        7
      ],
      "name": "_rootJoint"
    },
    {
      "children": [
        8
      ],
      "name": "joint1_00",
      "rotation": [
        -4.6792388998451625e-24,
        4.679241266427878e-24,
        0.7071068286895752,
        0.7071067094802856
      ],
      "translation": [
        -0.011326901614665985,
        0.03966319188475609,
        0.0
      ]
    },
    {
      "children": [
        9
      ],
      "name": "joint2_01",
      "rotation": [
        7.888609052210118e-31,
        1.3234889800848443e-23,
        1.2137633191062139e-23,
        1.0
      ],
      "translation": [
        2.35646915435791,
        5.011813186683867e-10,
        2.6469779601696886e-23
      ]
    },
    {
      "children": [
        10
      ],
      "name": "joint3_02",
      "rotation": [
        7.888609992605599e-31,
        1.3234889800848443e-23,
        1.2137633191062139e-23,
        1.0
      ],
      "scale": [
        1.0,
        0.9999999403953552,
        1.0
      ],
      "translation": [
        2.318152666091919,
        -2.4564883460698184e-10,
        0.0
      ]
    },
    {
      "children": [
        11
      ],
      "name": "joint4_03",
      "rotation": [
        1.1754943508222875e-38,
        1.3234889800848443e-23,
        -8.881784197001252e-16,
        1.0
      ],
      "translation": [
        1.551821231842041,
        -1.193006653466e-07,
        0.0
      ]
    },
    {
      "children": [
        12
      ],
      "name": "joint5_04",
      "rotation": [
        -4.679241266427878e-24,
        4.6792388998451625e-24,
        -0.7071068286895752,
        0.7071067094802856
      ],
      "translation": [
        1.858354091644287,
        -2.9757529773632996e-10,
        0.0
      ]
    },
    {
      "name": "joint5_end_05",
      "rotation": [
        -6.617444900424222e-24,
        -9.4039548065783e-38,
        3.940683298207916e-31,
        1.0
      ],
      "translation": [
        0.0,
        1.8583545684814453,
        -1.0587911840678754e-22
      ]
    },
    {
      "matrix": [
        1.0,
        0.0,
        0.0,
        0.0,
        0.0,
        1.0,
        -7.549789415861599e-08,
        0.0,
        0.0,
        7.549789415861599e-08,
        1.0,
        0.0,
        0.0,
        0.0,
        -8.390644848030055e-17,
        1.0
      ],
      "name": "Object_13"
    },
    {
      "mesh": 0,
      "name": "Object_14",
      "skin": 0
    },
    {
      "matrix": [
        1.0,
        0.0,
        0.0,
        0.0,
        0.0,
        1.0,
        -7.549789415861599e-08,
        0.0,
        0.0,
        7.549789415861599e-08,
        1.0,
        0.0,
        0.0,
        0.0,
        -8.390644848030055e-17,
        1.0
      ],
      "name": "Object_15"
    },
    {
      "mesh": 1,
      "name": "Object_16",
      "skin": 0
    },
    {
      "matrix": [
        1.0,
        0.0,
        0.0,
        0.0,
        0.0,
        1.0,
        -7.549789415861599e-08,
        0.0,
        0.0,
        7.549789415861599e-08,
        1.0,
        0.0,
        0.0,
        0.0,
        -8.390644848030055e-17,
        1.0
      ],
      "name": "Object_17"
    },
    {
      "mesh": 2,
      "name": "Object_18",
      "skin": 0
    },
    {
      "name": "Jelly",
      "rotation": [
        -3.774894707930798e-08,
        -0.0,
        0.0,
        1.0
      ]
    },
    {
      "name": "sparkle",
      "rotation": [
        -3.774894707930798e-08,
        -0.0,
        0.0,
        1.0
      ]
    },
    {
      "name": "stars",
      "rotation": [
        -3.774894707930798e-08,
        -0.0,
        0.0,
        1.0
      ]
    }
  ],
  "samplers": [
    {
      "magFilter": 9729,
      "minFilter": 9987,
      "wrapS": 10497,
      "wrapT": 10497
    }
  ],
  "scene": 0,
  "scenes": [
    {
      "name": "Sketchfab_Scene",
      "nodes": [
        0
      ]
    }
  ],
  "skins": [
    {
      "inverseBindMatrices": 12,
      "joints": [
        6,
        7,
        8,
        9,
        10,
        11,
        12
      ],
      "skeleton": 6
    }
  ],
  "textures": [
    {
      "sampler": 0,
      "source": 0
    },
    {
      "sampler": 0,
      "source": 1
    },
    {
      "sampler": 0,
      "source": 2
    }
  ]
}
